<?xml version="1.0" standalone="no"?>
<!DOCTYPE svg PUBLIC "-//W3C//DTD SVG 20010904//EN"
 "http://www.w3.org/TR/2001/REC-SVG-20010904/DTD/svg10.dtd">
<svg version="1.0" xmlns="http://www.w3.org/2000/svg"
 width="300.000000pt" height="225.000000pt" viewBox="0 0 300.000000 225.000000"
 preserveAspectRatio="xMidYMid meet">
<metadata>
Created by potrace 1.10, written by Peter Selinger 2001-2011
</metadata>
<g transform="translate(0.000000,225.000000) scale(0.100000,-0.100000)"
fill="#000000" stroke="none">
<path d="M1259 2100 c-170 -85 -299 -156 -303 -166 -4 -10 1 -25 12 -38 11
-12 22 -33 26 -48 9 -38 -4 -118 -20 -118 -7 0 -16 -5 -19 -10 -9 -15 4 -50
19 -50 9 0 5 -15 -12 -49 -17 -36 -24 -66 -24 -108 0 -94 28 -146 85 -159 25
-5 28 -8 14 -16 -31 -17 -50 -68 -43 -115 11 -85 45 -110 159 -118 526 -37
546 -37 712 -20 88 9 171 21 185 27 l24 10 -23 17 c-21 16 -23 26 -23 86 0 60
2 70 23 86 19 14 21 20 11 32 -7 8 -29 18 -50 21 -142 25 -142 25 -142 60 0
58 11 94 31 99 36 10 22 43 -26 61 -25 10 -45 21 -45 25 0 3 27 12 61 18 112
21 138 57 121 161 -6 35 -17 74 -26 87 -16 25 -363 330 -406 357 -24 16 -34
12 -321 -132z m296 -6 c8 -72 2 -151 -12 -165 -5 -5 -127 -49 -271 -99 l-262
-90 0 63 c0 34 -3 71 -6 83 -5 18 22 33 263 147 147 69 271 126 275 127 3 0
10 -30 13 -66z m405 -264 c6 -15 10 -51 8 -81 -5 -83 -22 -79 -222 54 l-168
112 -2 121 -2 121 187 -150 c112 -89 192 -161 199 -177z m-142 -118 c28 -19
52 -39 52 -44 0 -4 -18 -20 -40 -34 -44 -30 -38 -31 -168 28 -34 15 -65 28
-67 28 -3 0 -24 8 -48 19 -96 43 -147 47 -252 23 -178 -42 -269 -62 -276 -62
-5 0 -9 8 -9 18 1 13 56 35 273 108 l272 90 105 -69 c58 -39 129 -86 158 -105z
m-428 -72 c-9 -54 -9 -86 0 -137 6 -36 9 -67 7 -69 -7 -8 -368 -46 -382 -40
-58 22 -57 202 0 228 26 12 378 96 384 92 1 -2 -2 -35 -9 -74z m250 -10 c107
-45 200 -84 207 -87 9 -3 10 -24 6 -71 -3 -37 -7 -69 -9 -70 -1 -2 -36 4 -77
13 -58 13 -91 15 -148 8 -72 -8 -176 0 -191 15 -4 4 -12 32 -18 62 -12 64 6
224 24 216 6 -2 99 -41 206 -86z m-92 -249 l93 -6 -26 -35 c-44 -59 -53 -135
-23 -192 6 -12 3 -20 -11 -27 -10 -6 -21 -8 -23 -5 -3 2 -99 9 -214 15 -256
13 -276 17 -299 66 -15 30 -15 42 -5 76 19 64 47 84 126 92 38 3 105 12 149
20 44 7 94 11 110 8 17 -3 72 -8 123 -12z m346 -40 c65 -11 119 -21 121 -23 2
-2 0 -23 -5 -48 -5 -25 -5 -64 0 -88 5 -30 4 -45 -4 -47 -19 -6 -239 -25 -292
-25 -40 0 -55 5 -73 24 -45 48 -36 154 17 203 31 29 75 30 236 4z"/>
<path d="M2475 1761 c-22 -10 -45 -24 -51 -32 -19 -23 -26 -76 -19 -132 6 -45
14 -58 56 -99 45 -44 53 -48 97 -48 74 0 110 16 132 60 18 35 18 40 4 54 -18
19 -34 12 -34 -14 0 -29 -47 -60 -93 -60 -32 0 -46 7 -78 39 -37 37 -39 41
-39 105 0 62 1 66 29 81 37 19 155 22 176 5 19 -16 41 1 32 24 -15 39 -143 49
-212 17z"/>
<path d="M2242 1733 c-7 -3 -19 -18 -28 -34 -16 -33 -9 -58 26 -82 20 -14 20
-14 0 -32 -30 -27 -27 -80 5 -101 31 -20 88 -14 117 13 22 20 19 65 -7 93 -14
15 -14 18 0 30 23 19 20 97 -4 110 -20 10 -86 12 -109 3z m88 -57 c0 -37 -24
-51 -54 -31 -44 29 -32 53 27 54 22 1 27 -3 27 -23z m-12 -108 c7 -7 12 -20
12 -30 0 -14 -8 -18 -35 -18 -38 0 -44 13 -18 42 19 21 25 22 41 6z"/>
<path d="M0 949 c0 -16 8 -19 45 -19 l45 0 -2 -262 -3 -263 -42 -3 c-29 -2
-43 -8 -43 -17 0 -12 42 -15 246 -17 158 -2 248 1 250 7 1 6 5 58 9 118 6 93
4 107 -9 107 -9 0 -16 -6 -16 -14 0 -43 -36 -119 -72 -152 l-39 -35 -92 3 -92
3 -3 263 -2 262 50 0 c42 0 50 3 50 19 0 17 -10 18 -140 18 -130 0 -140 -1
-140 -18z"/>
<path d="M786 892 c-9 -116 -8 -152 7 -152 8 0 19 21 26 53 21 96 76 152 139
145 l27 -3 3 -267 2 -268 -50 0 c-41 0 -50 -3 -50 -17 0 -16 13 -18 140 -18
125 0 140 2 140 17 0 13 -11 18 -47 20 l-48 3 -3 254 c-2 179 1 258 9 267 15
18 53 18 88 -1 29 -15 81 -102 81 -136 0 -27 11 -49 25 -49 10 0 12 24 8 108
-3 59 -8 109 -10 112 -3 3 -112 5 -243 6 l-237 1 -7 -75z"/>
<path d="M1490 950 c0 -16 6 -20 33 -20 66 0 69 -11 65 -260 l-3 -222 -28 -24
c-15 -13 -37 -24 -48 -24 -11 0 -19 -7 -19 -17 0 -16 12 -18 115 -18 103 0
115 2 115 18 0 12 -8 17 -25 17 -14 0 -37 11 -50 25 -25 24 -25 24 -25 232 1
162 3 204 12 188 6 -11 82 -112 168 -225 86 -113 165 -218 174 -233 10 -15 27
-27 37 -27 18 0 19 12 19 259 0 246 1 260 21 285 12 15 30 26 45 26 17 0 24 6
24 18 0 17 -10 19 -105 18 -91 0 -105 -2 -105 -17 0 -10 11 -19 30 -23 52 -10
60 -47 59 -258 0 -145 -3 -179 -12 -165 -7 10 -88 117 -182 239 l-170 222 -72
3 c-68 3 -73 2 -73 -17z"/>
<path d="M2395 891 c-3 -42 -7 -93 -9 -113 -3 -31 -1 -38 14 -38 13 0 19 11
24 41 14 86 74 159 132 159 42 0 44 -15 42 -281 l-3 -254 -47 -3 c-37 -2 -48
-7 -48 -20 0 -15 15 -17 140 -17 125 0 140 2 140 17 0 13 -11 18 -47 20 l-48
3 -3 256 c-2 218 0 258 13 269 22 18 77 4 108 -28 28 -29 57 -99 57 -138 0
-17 6 -24 19 -24 16 0 18 6 15 43 -2 23 -5 74 -7 112 l-3 70 -241 1 -242 0 -6
-75z"/>
<path d="M612 444 c-28 -19 -28 -58 -1 -78 23 -16 47 -12 67 12 17 22 15 39
-8 62 -24 24 -29 24 -58 4z"/>
<path d="M1324 450 c-25 -10 -34 -37 -23 -66 10 -28 42 -36 69 -17 43 30 3
102 -46 83z"/>
<path d="M2221 443 c-29 -19 -27 -59 3 -78 43 -28 91 18 67 63 -14 26 -45 33
-70 15z"/>
<path d="M2933 449 c-39 -14 -40 -69 -2 -90 39 -20 81 29 60 69 -13 25 -31 31
-58 21z"/>
<path d="M1160 193 c-29 -76 -63 -148 -76 -160 l-23 -21 54 -4 c30 -1 55 0 55
5 0 4 -6 7 -14 7 -22 0 -29 17 -22 56 l7 34 63 0 c63 0 64 -1 75 -31 16 -46
14 -57 -11 -62 -13 -2 9 -5 47 -5 61 -2 67 0 46 11 -18 9 -36 46 -79 160 -31
81 -58 147 -62 147 -4 0 -31 -62 -60 -137z m78 -6 c12 -33 22 -60 22 -60 0 -1
-22 0 -50 1 -27 2 -50 7 -50 10 0 18 46 120 51 114 3 -4 15 -33 27 -65z"/>
<path d="M2290 304 c-68 -178 -105 -262 -123 -276 -21 -17 -21 -18 38 -17 44
0 54 3 39 9 -31 12 -35 23 -23 59 11 30 13 31 73 31 l63 0 11 -37 c12 -40 9
-53 -14 -53 -8 0 -14 -3 -14 -7 0 -5 27 -6 60 -5 57 4 59 5 40 20 -11 10 -43
78 -71 152 -28 74 -55 139 -60 144 -5 5 -13 -3 -19 -20z m29 -104 c12 -30 21
-59 21 -65 0 -6 -21 -9 -49 -7 l-49 4 26 64 c14 35 26 63 28 61 1 -1 12 -27
23 -57z"/>
<path d="M570 295 c-30 -32 -32 -87 -4 -115 10 -11 51 -30 89 -42 63 -21 70
-26 73 -51 5 -40 -22 -67 -68 -67 -42 0 -74 25 -99 79 l-16 36 -3 -64 c-3 -70
2 -83 21 -57 12 16 14 16 46 0 69 -34 151 9 151 80 0 49 -26 74 -95 92 -96 25
-121 62 -68 104 45 35 102 10 124 -57 6 -19 14 -31 17 -28 12 12 8 115 -5 115
-6 0 -13 -5 -15 -11 -3 -9 -9 -9 -25 0 -39 20 -97 14 -123 -14z"/>
<path d="M790 310 c0 -5 11 -10 25 -10 l26 0 -3 -137 c-3 -137 -3 -137 -28
-144 -14 -4 35 -7 108 -8 131 -1 132 -1 132 22 0 12 3 39 6 59 9 51 -8 48 -26
-4 -17 -48 -46 -68 -102 -68 l-38 0 0 140 0 140 25 0 c14 0 25 5 25 10 0 6
-32 10 -75 10 -43 0 -75 -4 -75 -10z"/>
<path d="M1367 313 c-10 -10 -8 -113 2 -113 5 0 11 14 15 32 8 41 33 68 63 68
l24 0 -3 -137 c-3 -135 -4 -138 -25 -141 -51 -7 -18 -17 49 -15 87 2 92 3 53
12 l-30 6 -3 138 c-3 137 -3 137 20 137 13 0 28 -4 34 -8 16 -11 34 -48 34
-71 0 -12 5 -21 10 -21 6 0 10 27 10 60 l0 60 -123 0 c-68 0 -127 -3 -130 -7z"/>
<path d="M1640 311 c0 -5 12 -11 28 -13 l27 -3 0 -135 0 -135 -28 -3 c-58 -7
-16 -17 55 -13 47 3 64 6 48 10 -25 7 -25 7 -28 144 l-3 137 26 0 c14 0 25 5
25 10 0 6 -32 10 -75 10 -41 0 -75 -4 -75 -9z"/>
<path d="M1820 311 c0 -5 10 -11 23 -13 21 -3 22 -7 25 -123 l3 -120 -28 -22
-28 -23 65 0 c63 1 64 1 38 16 -28 15 -28 15 -28 122 1 86 3 104 13 91 7 -8
48 -63 92 -122 43 -59 85 -107 92 -107 9 0 13 35 15 138 3 131 4 137 26 147
37 17 25 25 -38 25 -33 0 -60 -4 -60 -10 0 -5 6 -10 14 -10 29 0 37 -27 34
-124 l-3 -96 -90 120 c-87 115 -91 119 -127 120 -21 0 -38 -4 -38 -9z"/>
</g>
</svg>
